# xmcd
#
# Track frame offsets:
#  150
#  23365
#  42465
#  62328
#  80391
#  100315
#  115468
#  129000
#  143273
#  153297
#  162334
#  180338
#  200170
#  220023
#  239130
#  258058
#  282751
#  299679
#  319834
#  336895
#
# Disc length: 4717 seconds
#
# Revision: 0
# Processed by: cddbd v1.5.1PL2 Copyright (c) Steve Scherf et al.
# Submitted via: Collectorz.com_Music_Collector 6.9
#
DISCID=16126b14
DTITLE=Various Artist - Bling Bling - The Urban Megamix
DYEAR=2005
DGENRE=*  Various
TTITLE0=Junior M.A.F.I.A. - Young G's 
TTITLE1=Boo Yaa Tribe - Tell 'm Who Send Yo Ass
TTITLE2=2Pac, DMX and Xzibit - Dolla Signs
TTITLE3=Redman - Rollin'
TTITLE4=Young Buck - Working With Something
TTITLE5=First Born - Caught In The Wind
TTITLE6=D12 - Makin' Moves
TTITLE7=Kurupt and Ras Kass - That's Gangsta
TTITLE8=Prodigy - Mobb Niggaz
TTITLE9=Snoop Dogg (?) - X-Change
TTITLE10=Dr. Dre and Snoop Dogg - 187 Ulm
TTITLE11=Fila Fresh Crew - Dunk The Funk
TTITLE12=Master P - Playaz Hustlaz
TTITLE13=N.W.A. - Cabbage Patch
TTITLE14=Eazy E and Ron-De-Vu - LA Is The Place
TTITLE15=Ice T - Ice-A-Mix
TTITLE16=Criminal At Large - Times Are Getting Hard
TTITLE17=Dr. Dre -  World Class
TTITLE18=Rhyme Syndicate - JB Is In Jail
TTITLE19=2Pac - Throw Your Hands Up
EXTD=
EXTT0=
EXTT1=
EXTT2=
EXTT3=
EXTT4=
EXTT5=
EXTT6=
EXTT7=
EXTT8=
EXTT9=
EXTT10=
EXTT11=
EXTT12=
EXTT13=
EXTT14=
EXTT15=
EXTT16=
EXTT17=
EXTT18=
EXTT19=
PLAYORDER=
